<?xml version="1.0" encoding="utf-8"?>
<!-- Generator: Adobe Illustrator 27.4.0, SVG Export Plug-In . SVG Version: 6.00 Build 0)  -->
<svg version="1.1" id="Шар_1" xmlns="http://www.w3.org/2000/svg" xmlns:xlink="http://www.w3.org/1999/xlink" x="0px" y="0px"
	 viewBox="0 0 1080 490.3" style="enable-background:new 0 0 1080 490.3;" xml:space="preserve">
<style type="text/css">
	.st0{fill:#0061AF;}
	.st1{fill:#E60033;}
</style>
<g>
	<path class="st0" d="M750.2,166.1c0-22.3,41.5-15.1,54.1-10.1l3.9-37.1c-42.1-13-107.4-3.3-107.3,52.1
		c-0.9,54.6,79.6,47.2,79.6,73.2c0,27.4-63,13.4-76.7,5l-7.2,37.2c46.8,20.7,135.8,16.1,133.4-46
		C829.2,180.1,750.2,190.7,750.2,166.1 M643.1,185.4c0-48.5-65.4-49.1-64.9,0H643.1z M577.9,222.9c3.4,42.9,70.3,35.5,99.2,26.3
		l7.2,37.1c-67.7,25.9-157.9,9-157.9-79c0-117.3,167.6-130,167.6-6.1c0,9.4-1.1,17.7-1.8,21.6H577.9V222.9z M812.9,156h25.8v73.7
		c0,38.7,9.8,67.7,52.6,67.7c15.5,0,28.3-3.9,35.5-6.8v-41.4c-25.6,4.8-38,6.4-38-27.7V69.6h-50v49.2h-21.9L812.9,156z M897.3,156
		h29.5l10.3-18.7L927,118.9h-29.6V156H897.3z M242.7,293.8l43.6-174.9L298,297.5h49L332.1,69.7h-76.5l-37.5,153.1L180.7,69.7h-76.5
		L89.3,297.4h49L150,118.9l43.6,174.9H242.7z"/>
	<path class="st1" d="M466.9,185.4c0-48.5-65.4-49.1-64.9,0H466.9z M401.6,222.9c3.4,42.9,70.3,35.5,99.2,26.3l7.2,37.1
		c-67.7,25.9-157.9,9-157.9-79c0-117.3,167.6-130,167.6-6.1c0,9.4-1.1,17.7-1.8,21.6H401.6V222.9z"/>
	<polygon class="st1" points="953.5,69.6 990.7,137.3 953.5,205.2 916.3,205.2 953.6,137.3 916.3,69.6 	"/>
	<path class="st0" d="M905,395.6c0,1.1,0,2.3-0.3,3.3c-1,3.4-4.6,5.7-7.9,5.7c-3.8,0-6.5-2-6.5-6c0-5.5,5.3-8.2,14.6-8.2v5.2H905z
		 M927.2,382.8c0-15.7-7.5-27.7-28.9-27.7c-12.9,0-21.8,3.6-25.9,5.6l4.1,14.7c4.1-2.4,11-4.7,17.6-4.7c8.2,0,10.2,2.8,10.2,5.4v0.5
		c-21.2,0.1-36.2,7.5-36.2,24.3c0,10.5,7.9,19.8,20.6,19.8c6.7,0,12.9-1.9,17.4-6.9h0.4l1.3,5.5h20.6c-0.8-3.2-1-9-1-15.3v-21.2
		H927.2z M809.5,356.5V374H827v45.2h23V374h17.5v-17.5H809.5z M710.3,356.5v62.7h93.1v-62.7h-22.6v45.4h-12.7v-45.4h-22.6v45.4
		h-12.7v-45.4H710.3z M671.1,371.3c6.9,0,9.6,7.9,9.6,16.6c0,10.1-3.4,16.6-9.5,16.6c-7.1,0-10.2-7.3-10.2-16.6
		C661.1,379.6,663.6,371.3,671.1,371.3 M671.9,355.1c-21.3,0-34.4,13.3-34.4,33.1c0,20.4,14.5,32.4,33.1,32.4
		c17.5,0,33.8-10.6,33.8-33.4C704.3,368.4,691.4,355.1,671.9,355.1 M558.5,333.3v85.9h23V352h26.4v67.2h22.8v-85.9L558.5,333.3
		L558.5,333.3z"/>
</g>
</svg>
