<?xml version="1.0" standalone="no"?>
<!DOCTYPE svg PUBLIC "-//W3C//DTD SVG 20010904//EN"
 "http://www.w3.org/TR/2001/REC-SVG-20010904/DTD/svg10.dtd">
<svg version="1.0" xmlns="http://www.w3.org/2000/svg"
 width="700.000000pt" height="700.000000pt" viewBox="0 0 700.000000 700.000000"
 preserveAspectRatio="xMidYMid meet">
<metadata>
Created by potrace 1.11, written by Peter Selinger 2001-2013
</metadata>
<g transform="translate(0.000000,700.000000) scale(0.100000,-0.100000)"
fill="#000000" stroke="none">
<path d="M1050 5993 c-196 -33 -366 -119 -495 -248 -176 -178 -259 -390 -250
-640 4 -116 5 -126 31 -213 23 -82 -39 46 917 -1882 508 -1025 886 -1789 989
-1998 55 -112 104 -200 109 -195 8 8 246 485 559 1118 238 482 264 563 264
820 0 123 -8 192 -34 296 -36 140 13 36 -670 1414 -518 1044 -547 1101 -590
1164 -115 167 -288 286 -495 343 -67 19 -274 32 -335 21z"/>
<path d="M3375 5990 c-198 -32 -353 -109 -490 -246 -174 -173 -259 -391 -250
-639 4 -114 6 -127 30 -209 24 -83 31 -97 410 -861 185 -374 437 -882 560
-1130 122 -247 372 -751 555 -1120 182 -369 366 -739 407 -822 41 -84 78 -153
81 -153 4 1 57 103 119 229 62 125 227 459 367 742 141 284 268 554 284 604
85 255 76 558 -23 806 -20 49 -117 252 -217 451 -99 200 -283 570 -408 823
-596 1205 -576 1166 -678 1271 -117 121 -297 219 -457 249 -54 10 -239 14
-290 5z"/>
<path d="M5715 5993 c-106 -19 -218 -55 -285 -91 -211 -115 -361 -295 -428
-514 -56 -179 -49 -382 17 -559 11 -30 117 -247 234 -484 117 -236 294 -593
392 -792 99 -200 182 -363 186 -363 3 0 42 73 87 163 44 89 221 446 392 792
172 347 323 657 336 691 57 151 67 372 24 524 -87 307 -321 534 -635 615 -64
16 -266 28 -320 18z"/>
</g>
</svg>
